<?xml version="1.0" encoding="UTF-8" standalone="no"?>
<!DOCTYPE svg PUBLIC "-//W3C//DTD SVG 1.1//EN"
 "http://www.w3.org/Graphics/SVG/1.1/DTD/svg11.dtd">
<!-- Generated by graphviz version 2.40.1 (20161225.0304)
 -->
<!-- Title: snakemake_dag Pages: 1 -->
<svg width="806pt" height="764pt"
 viewBox="0.00 0.00 805.96 764.00" xmlns="http://www.w3.org/2000/svg" xmlns:xlink="http://www.w3.org/1999/xlink">
<g id="graph0" class="graph" transform="scale(1 1) rotate(0) translate(4 760)">
<title>snakemake_dag</title>
<polygon fill="#ffffff" stroke="transparent" points="-4,4 -4,-760 801.9554,-760 801.9554,4 -4,4"/>
<!-- 0 -->
<g id="node1" class="node">
<title>0</title>
<path fill="none" stroke="#566bd8" stroke-width="2" d="M460.313,-36C460.313,-36 430.313,-36 430.313,-36 424.313,-36 418.313,-30 418.313,-24 418.313,-24 418.313,-12 418.313,-12 418.313,-6 424.313,0 430.313,0 430.313,0 460.313,0 460.313,0 466.313,0 472.313,-6 472.313,-12 472.313,-12 472.313,-24 472.313,-24 472.313,-30 466.313,-36 460.313,-36"/>
<text text-anchor="middle" x="445.313" y="-15" font-family="sans" font-size="10.00" fill="#000000">all</text>
</g>
<!-- 1 -->
<g id="node2" class="node">
<title>1</title>
<path fill="none" stroke="#569ad8" stroke-width="2" d="M468.7363,-108C468.7363,-108 421.8897,-108 421.8897,-108 415.8897,-108 409.8897,-102 409.8897,-96 409.8897,-96 409.8897,-84 409.8897,-84 409.8897,-78 415.8897,-72 421.8897,-72 421.8897,-72 468.7363,-72 468.7363,-72 474.7363,-72 480.7363,-78 480.7363,-84 480.7363,-84 480.7363,-96 480.7363,-96 480.7363,-102 474.7363,-108 468.7363,-108"/>
<text text-anchor="middle" x="445.313" y="-87" font-family="sans" font-size="10.00" fill="#000000">make_reports</text>
</g>
<!-- 1&#45;&gt;0 -->
<g id="edge1" class="edge">
<title>1&#45;&gt;0</title>
<path fill="none" stroke="#c0c0c0" stroke-width="2" d="M445.313,-71.8314C445.313,-64.131 445.313,-54.9743 445.313,-46.4166"/>
<polygon fill="#c0c0c0" stroke="#c0c0c0" stroke-width="2" points="448.8131,-46.4132 445.313,-36.4133 441.8131,-46.4133 448.8131,-46.4132"/>
</g>
<!-- 2 -->
<g id="node3" class="node">
<title>2</title>
<path fill="none" stroke="#56c9d8" stroke-width="2" d="M755.393,-180C755.393,-180 687.233,-180 687.233,-180 681.233,-180 675.233,-174 675.233,-168 675.233,-168 675.233,-156 675.233,-156 675.233,-150 681.233,-144 687.233,-144 687.233,-144 755.393,-144 755.393,-144 761.393,-144 767.393,-150 767.393,-156 767.393,-156 767.393,-168 767.393,-168 767.393,-174 761.393,-180 755.393,-180"/>
<text text-anchor="middle" x="721.313" y="-159" font-family="sans" font-size="10.00" fill="#000000">export_rooted_tree</text>
</g>
<!-- 2&#45;&gt;1 -->
<g id="edge5" class="edge">
<title>2&#45;&gt;1</title>
<path fill="none" stroke="#c0c0c0" stroke-width="2" d="M675.1786,-146.6174C672.1858,-145.7075 669.2114,-144.8271 666.313,-144 606.0594,-126.8063 535.6143,-110.1851 490.7478,-100.0296"/>
<polygon fill="#c0c0c0" stroke="#c0c0c0" stroke-width="2" points="491.2705,-96.5597 480.7458,-97.7769 489.7324,-103.3886 491.2705,-96.5597"/>
</g>
<!-- 3 -->
<g id="node4" class="node">
<title>3</title>
<path fill="none" stroke="#b6d856" stroke-width="2" d="M729.0373,-252C729.0373,-252 679.5887,-252 679.5887,-252 673.5887,-252 667.5887,-246 667.5887,-240 667.5887,-240 667.5887,-228 667.5887,-228 667.5887,-222 673.5887,-216 679.5887,-216 679.5887,-216 729.0373,-216 729.0373,-216 735.0373,-216 741.0373,-222 741.0373,-228 741.0373,-228 741.0373,-240 741.0373,-240 741.0373,-246 735.0373,-252 729.0373,-252"/>
<text text-anchor="middle" x="704.313" y="-231" font-family="sans" font-size="10.00" fill="#000000">midpoint_root</text>
</g>
<!-- 3&#45;&gt;2 -->
<g id="edge13" class="edge">
<title>3&#45;&gt;2</title>
<path fill="none" stroke="#c0c0c0" stroke-width="2" d="M708.6028,-215.8314C710.421,-208.131 712.5829,-198.9743 714.6035,-190.4166"/>
<polygon fill="#c0c0c0" stroke="#c0c0c0" stroke-width="2" points="718.0738,-190.95 716.9654,-180.4133 711.2611,-189.3414 718.0738,-190.95"/>
</g>
<!-- 20 -->
<g id="node21" class="node">
<title>20</title>
<path fill="none" stroke="#70d856" stroke-width="2" d="M645.271,-180C645.271,-180 583.355,-180 583.355,-180 577.355,-180 571.355,-174 571.355,-168 571.355,-168 571.355,-156 571.355,-156 571.355,-150 577.355,-144 583.355,-144 583.355,-144 645.271,-144 645.271,-144 651.271,-144 657.271,-150 657.271,-156 657.271,-156 657.271,-168 657.271,-168 657.271,-174 651.271,-180 645.271,-180"/>
<text text-anchor="middle" x="614.313" y="-159" font-family="sans" font-size="10.00" fill="#000000">alpha_rarefaction</text>
</g>
<!-- 3&#45;&gt;20 -->
<g id="edge31" class="edge">
<title>3&#45;&gt;20</title>
<path fill="none" stroke="#c0c0c0" stroke-width="2" d="M681.6022,-215.8314C670.517,-206.9632 657.0176,-196.1637 645.0278,-186.5718"/>
<polygon fill="#c0c0c0" stroke="#c0c0c0" stroke-width="2" points="647.0117,-183.6768 637.0165,-180.1628 642.6388,-189.1429 647.0117,-183.6768"/>
</g>
<!-- 4 -->
<g id="node5" class="node">
<title>4</title>
<path fill="none" stroke="#56d882" stroke-width="2" d="M744.6781,-324C744.6781,-324 663.9479,-324 663.9479,-324 657.9479,-324 651.9479,-318 651.9479,-312 651.9479,-312 651.9479,-300 651.9479,-300 651.9479,-294 657.9479,-288 663.9479,-288 663.9479,-288 744.6781,-288 744.6781,-288 750.6781,-288 756.6781,-294 756.6781,-300 756.6781,-300 756.6781,-312 756.6781,-312 756.6781,-318 750.6781,-324 744.6781,-324"/>
<text text-anchor="middle" x="704.313" y="-303" font-family="sans" font-size="10.00" fill="#000000">Phylogenetic_Fasttree</text>
</g>
<!-- 4&#45;&gt;3 -->
<g id="edge14" class="edge">
<title>4&#45;&gt;3</title>
<path fill="none" stroke="#c0c0c0" stroke-width="2" d="M704.313,-287.8314C704.313,-280.131 704.313,-270.9743 704.313,-262.4166"/>
<polygon fill="#c0c0c0" stroke="#c0c0c0" stroke-width="2" points="707.8131,-262.4132 704.313,-252.4133 700.8131,-262.4133 707.8131,-262.4132"/>
</g>
<!-- 5 -->
<g id="node6" class="node">
<title>5</title>
<path fill="none" stroke="#56d89a" stroke-width="2" d="M737.6931,-396C737.6931,-396 666.9329,-396 666.9329,-396 660.9329,-396 654.9329,-390 654.9329,-384 654.9329,-384 654.9329,-372 654.9329,-372 654.9329,-366 660.9329,-360 666.9329,-360 666.9329,-360 737.6931,-360 737.6931,-360 743.6931,-360 749.6931,-366 749.6931,-372 749.6931,-372 749.6931,-384 749.6931,-384 749.6931,-390 743.6931,-396 737.6931,-396"/>
<text text-anchor="middle" x="702.313" y="-375" font-family="sans" font-size="10.00" fill="#000000">masking_alignment</text>
</g>
<!-- 5&#45;&gt;4 -->
<g id="edge15" class="edge">
<title>5&#45;&gt;4</title>
<path fill="none" stroke="#c0c0c0" stroke-width="2" d="M702.8177,-359.8314C703.0316,-352.131 703.2859,-342.9743 703.5236,-334.4166"/>
<polygon fill="#c0c0c0" stroke="#c0c0c0" stroke-width="2" points="707.0224,-334.5066 703.8015,-324.4133 700.0251,-334.3122 707.0224,-334.5066"/>
</g>
<!-- 6 -->
<g id="node7" class="node">
<title>6</title>
<path fill="none" stroke="#d8cb56" stroke-width="2" d="M726.4627,-468C726.4627,-468 668.1633,-468 668.1633,-468 662.1633,-468 656.1633,-462 656.1633,-456 656.1633,-456 656.1633,-444 656.1633,-444 656.1633,-438 662.1633,-432 668.1633,-432 668.1633,-432 726.4627,-432 726.4627,-432 732.4627,-432 738.4627,-438 738.4627,-444 738.4627,-444 738.4627,-456 738.4627,-456 738.4627,-462 732.4627,-468 726.4627,-468"/>
<text text-anchor="middle" x="697.313" y="-447" font-family="sans" font-size="10.00" fill="#000000">mafft_alignment</text>
</g>
<!-- 6&#45;&gt;5 -->
<g id="edge16" class="edge">
<title>6&#45;&gt;5</title>
<path fill="none" stroke="#c0c0c0" stroke-width="2" d="M698.5747,-431.8314C699.1095,-424.131 699.7453,-414.9743 700.3396,-406.4166"/>
<polygon fill="#c0c0c0" stroke="#c0c0c0" stroke-width="2" points="703.833,-406.6317 701.0343,-396.4133 696.8498,-406.1467 703.833,-406.6317"/>
</g>
<!-- 7 -->
<g id="node8" class="node">
<title>7</title>
<path fill="none" stroke="#d8b456" stroke-width="2" d="M460.6851,-540C460.6851,-540 399.9409,-540 399.9409,-540 393.9409,-540 387.9409,-534 387.9409,-528 387.9409,-528 387.9409,-516 387.9409,-516 387.9409,-510 393.9409,-504 399.9409,-504 399.9409,-504 460.6851,-504 460.6851,-504 466.6851,-504 472.6851,-510 472.6851,-516 472.6851,-516 472.6851,-528 472.6851,-528 472.6851,-534 466.6851,-540 460.6851,-540"/>
<text text-anchor="middle" x="430.313" y="-519" font-family="sans" font-size="10.00" fill="#000000">denoising_paired</text>
</g>
<!-- 7&#45;&gt;6 -->
<g id="edge17" class="edge">
<title>7&#45;&gt;6</title>
<path fill="none" stroke="#c0c0c0" stroke-width="2" d="M473.0793,-511.4569C515.2294,-500.9341 581.4024,-484.061 638.313,-468 640.9283,-467.2619 643.6048,-466.4933 646.3047,-465.7075"/>
<polygon fill="#c0c0c0" stroke="#c0c0c0" stroke-width="2" points="647.5165,-468.9991 656.1158,-462.8103 645.534,-462.2857 647.5165,-468.9991"/>
</g>
<!-- 11 -->
<g id="node12" class="node">
<title>11</title>
<path fill="none" stroke="#59d856" stroke-width="2" d="M90.4397,-396C90.4397,-396 12.1863,-396 12.1863,-396 6.1863,-396 .1863,-390 .1863,-384 .1863,-384 .1863,-372 .1863,-372 .1863,-366 6.1863,-360 12.1863,-360 12.1863,-360 90.4397,-360 90.4397,-360 96.4397,-360 102.4397,-366 102.4397,-372 102.4397,-372 102.4397,-384 102.4397,-384 102.4397,-390 96.4397,-396 90.4397,-396"/>
<text text-anchor="middle" x="51.313" y="-375" font-family="sans" font-size="10.00" fill="#000000">export_representative</text>
</g>
<!-- 7&#45;&gt;11 -->
<g id="edge21" class="edge">
<title>7&#45;&gt;11</title>
<path fill="none" stroke="#c0c0c0" stroke-width="2" d="M387.7561,-519.3179C333.9682,-514.6029 239.5681,-501.8542 166.313,-468 131.7275,-452.0166 98.1176,-423.7839 76.2564,-403.1914"/>
<polygon fill="#c0c0c0" stroke="#c0c0c0" stroke-width="2" points="78.6703,-400.657 69.0314,-396.2589 73.8238,-405.7079 78.6703,-400.657"/>
</g>
<!-- 12 -->
<g id="node13" class="node">
<title>12</title>
<path fill="none" stroke="#9fd856" stroke-width="2" d="M155.296,-324C155.296,-324 113.33,-324 113.33,-324 107.33,-324 101.33,-318 101.33,-312 101.33,-312 101.33,-300 101.33,-300 101.33,-294 107.33,-288 113.33,-288 113.33,-288 155.296,-288 155.296,-288 161.296,-288 167.296,-294 167.296,-300 167.296,-300 167.296,-312 167.296,-312 167.296,-318 161.296,-324 155.296,-324"/>
<text text-anchor="middle" x="134.313" y="-303" font-family="sans" font-size="10.00" fill="#000000">export_table</text>
</g>
<!-- 7&#45;&gt;12 -->
<g id="edge22" class="edge">
<title>7&#45;&gt;12</title>
<path fill="none" stroke="#c0c0c0" stroke-width="2" d="M387.5738,-514.4593C336.2641,-504.7412 254.0238,-486.8415 229.313,-468 183.8107,-433.3054 156.0487,-370.0445 143.0884,-333.6899"/>
<polygon fill="#c0c0c0" stroke="#c0c0c0" stroke-width="2" points="146.3851,-332.5136 139.8229,-324.1957 139.7657,-334.7903 146.3851,-332.5136"/>
</g>
<!-- 14 -->
<g id="node15" class="node">
<title>14</title>
<path fill="none" stroke="#5682d8" stroke-width="2" d="M257.232,-252C257.232,-252 195.394,-252 195.394,-252 189.394,-252 183.394,-246 183.394,-240 183.394,-240 183.394,-228 183.394,-228 183.394,-222 189.394,-216 195.394,-216 195.394,-216 257.232,-216 257.232,-216 263.232,-216 269.232,-222 269.232,-228 269.232,-228 269.232,-240 269.232,-240 269.232,-246 263.232,-252 257.232,-252"/>
<text text-anchor="middle" x="226.313" y="-231" font-family="sans" font-size="10.00" fill="#000000">classifying_reads</text>
</g>
<!-- 7&#45;&gt;14 -->
<g id="edge24" class="edge">
<title>7&#45;&gt;14</title>
<path fill="none" stroke="#c0c0c0" stroke-width="2" d="M387.8721,-517.2428C354.753,-511.2837 310.0217,-497.9144 283.313,-468 230.8864,-409.281 224.7424,-310.3762 225.1616,-262.1465"/>
<polygon fill="#c0c0c0" stroke="#c0c0c0" stroke-width="2" points="228.6616,-262.1772 225.3522,-252.1125 221.6629,-262.0442 228.6616,-262.1772"/>
</g>
<!-- 16 -->
<g id="node17" class="node">
<title>16</title>
<path fill="none" stroke="#88d856" stroke-width="2" d="M471.4691,-396C471.4691,-396 337.1569,-396 337.1569,-396 331.1569,-396 325.1569,-390 325.1569,-384 325.1569,-384 325.1569,-372 325.1569,-372 325.1569,-366 331.1569,-360 337.1569,-360 337.1569,-360 471.4691,-360 471.4691,-360 477.4691,-360 483.4691,-366 483.4691,-372 483.4691,-372 483.4691,-384 483.4691,-384 483.4691,-390 477.4691,-396 471.4691,-396"/>
<text text-anchor="middle" x="404.313" y="-375" font-family="sans" font-size="10.00" fill="#000000">visualize_representative_sequences</text>
</g>
<!-- 7&#45;&gt;16 -->
<g id="edge26" class="edge">
<title>7&#45;&gt;16</title>
<path fill="none" stroke="#c0c0c0" stroke-width="2" d="M427.0201,-503.7623C422.5659,-479.0928 414.5793,-434.8598 409.3637,-405.9731"/>
<polygon fill="#c0c0c0" stroke="#c0c0c0" stroke-width="2" points="412.8004,-405.3086 407.5792,-396.0896 405.9118,-406.5524 412.8004,-405.3086"/>
</g>
<!-- 17 -->
<g id="node18" class="node">
<title>17</title>
<path fill="none" stroke="#d89c56" stroke-width="2" d="M509.292,-324C509.292,-324 457.334,-324 457.334,-324 451.334,-324 445.334,-318 445.334,-312 445.334,-312 445.334,-300 445.334,-300 445.334,-294 451.334,-288 457.334,-288 457.334,-288 509.292,-288 509.292,-288 515.292,-288 521.292,-294 521.292,-300 521.292,-300 521.292,-312 521.292,-312 521.292,-318 515.292,-324 509.292,-324"/>
<text text-anchor="middle" x="483.313" y="-303" font-family="sans" font-size="10.00" fill="#000000">visualize_table</text>
</g>
<!-- 7&#45;&gt;17 -->
<g id="edge27" class="edge">
<title>7&#45;&gt;17</title>
<path fill="none" stroke="#c0c0c0" stroke-width="2" d="M437.2562,-503.6724C444.4847,-485.1988 456.5211,-456.0568 469.313,-432 478.2271,-415.236 486.9882,-414.2247 492.313,-396 498.2032,-375.8402 495.4819,-352.1789 491.5396,-334.1779"/>
<polygon fill="#c0c0c0" stroke="#c0c0c0" stroke-width="2" points="494.9013,-333.1895 489.1333,-324.3025 488.1003,-334.8468 494.9013,-333.1895"/>
</g>
<!-- 18 -->
<g id="node19" class="node">
<title>18</title>
<path fill="none" stroke="#56d8b1" stroke-width="2" d="M584.5172,-468C584.5172,-468 490.1088,-468 490.1088,-468 484.1088,-468 478.1088,-462 478.1088,-456 478.1088,-456 478.1088,-444 478.1088,-444 478.1088,-438 484.1088,-432 490.1088,-432 490.1088,-432 584.5172,-432 584.5172,-432 590.5172,-432 596.5172,-438 596.5172,-444 596.5172,-444 596.5172,-456 596.5172,-456 596.5172,-462 590.5172,-468 584.5172,-468"/>
<text text-anchor="middle" x="537.313" y="-447" font-family="sans" font-size="10.00" fill="#000000">visualize_denoising_stats</text>
</g>
<!-- 7&#45;&gt;18 -->
<g id="edge28" class="edge">
<title>7&#45;&gt;18</title>
<path fill="none" stroke="#c0c0c0" stroke-width="2" d="M457.3136,-503.8314C470.7461,-494.7927 487.1603,-483.7476 501.6169,-474.0198"/>
<polygon fill="#c0c0c0" stroke="#c0c0c0" stroke-width="2" points="503.9784,-476.6494 510.321,-468.1628 500.0705,-470.8418 503.9784,-476.6494"/>
</g>
<!-- 7&#45;&gt;20 -->
<g id="edge30" class="edge">
<title>7&#45;&gt;20</title>
<path fill="none" stroke="#c0c0c0" stroke-width="2" d="M472.983,-513.9833C518.8099,-504.5129 587.4692,-487.5511 605.313,-468 632.8722,-437.804 624.313,-418.8816 624.313,-378 624.313,-378 624.313,-378 624.313,-306 624.313,-265.7793 620.3825,-219.391 617.4498,-190.3773"/>
<polygon fill="#c0c0c0" stroke="#c0c0c0" stroke-width="2" points="620.9026,-189.7407 616.385,-180.1573 613.9402,-190.4662 620.9026,-189.7407"/>
</g>
<!-- 21 -->
<g id="node22" class="node">
<title>21</title>
<path fill="none" stroke="#d85656" stroke-width="2" d="M405.3551,-180C405.3551,-180 333.2709,-180 333.2709,-180 327.2709,-180 321.2709,-174 321.2709,-168 321.2709,-168 321.2709,-156 321.2709,-156 321.2709,-150 327.2709,-144 333.2709,-144 333.2709,-144 405.3551,-144 405.3551,-144 411.3551,-144 417.3551,-150 417.3551,-156 417.3551,-156 417.3551,-168 417.3551,-168 417.3551,-174 411.3551,-180 405.3551,-180"/>
<text text-anchor="middle" x="369.313" y="-159" font-family="sans" font-size="10.00" fill="#000000">Taxonomy_analysis</text>
</g>
<!-- 7&#45;&gt;21 -->
<g id="edge32" class="edge">
<title>7&#45;&gt;21</title>
<path fill="none" stroke="#c0c0c0" stroke-width="2" d="M395.716,-503.9586C356.3087,-480.6334 297.313,-436.0242 297.313,-378 297.313,-378 297.313,-378 297.313,-306 297.313,-260.9118 325.9013,-215.4695 347.0494,-188.0221"/>
<polygon fill="#c0c0c0" stroke="#c0c0c0" stroke-width="2" points="349.8598,-190.1111 353.3339,-180.102 344.3763,-185.7601 349.8598,-190.1111"/>
</g>
<!-- 8 -->
<g id="node9" class="node">
<title>8</title>
<path fill="none" stroke="#ced856" stroke-width="2" d="M510.466,-612C510.466,-612 472.16,-612 472.16,-612 466.16,-612 460.16,-606 460.16,-600 460.16,-600 460.16,-588 460.16,-588 460.16,-582 466.16,-576 472.16,-576 472.16,-576 510.466,-576 510.466,-576 516.466,-576 522.466,-582 522.466,-588 522.466,-588 522.466,-600 522.466,-600 522.466,-606 516.466,-612 510.466,-612"/>
<text text-anchor="middle" x="491.313" y="-591" font-family="sans" font-size="10.00" fill="#000000">trim_paired</text>
</g>
<!-- 8&#45;&gt;7 -->
<g id="edge18" class="edge">
<title>8&#45;&gt;7</title>
<path fill="none" stroke="#c0c0c0" stroke-width="2" d="M475.9201,-575.8314C468.8226,-567.454 460.265,-557.3531 452.489,-548.1749"/>
<polygon fill="#c0c0c0" stroke="#c0c0c0" stroke-width="2" points="455.0478,-545.7807 445.9131,-540.4133 449.7069,-550.3056 455.0478,-545.7807"/>
</g>
<!-- 15 -->
<g id="node16" class="node">
<title>15</title>
<path fill="none" stroke="#d86e56" stroke-width="2" d="M729.6304,-540C729.6304,-540 628.9956,-540 628.9956,-540 622.9956,-540 616.9956,-534 616.9956,-528 616.9956,-528 616.9956,-516 616.9956,-516 616.9956,-510 622.9956,-504 628.9956,-504 628.9956,-504 729.6304,-504 729.6304,-504 735.6304,-504 741.6304,-510 741.6304,-516 741.6304,-516 741.6304,-528 741.6304,-528 741.6304,-534 735.6304,-540 729.6304,-540"/>
<text text-anchor="middle" x="679.313" y="-519" font-family="sans" font-size="10.00" fill="#000000">trimmed_demux_summary</text>
</g>
<!-- 8&#45;&gt;15 -->
<g id="edge25" class="edge">
<title>8&#45;&gt;15</title>
<path fill="none" stroke="#c0c0c0" stroke-width="2" d="M522.78,-581.9488C549.9894,-571.5282 589.9923,-556.2079 622.747,-543.6636"/>
<polygon fill="#c0c0c0" stroke="#c0c0c0" stroke-width="2" points="624.1289,-546.8823 632.2157,-540.0373 621.6253,-540.3453 624.1289,-546.8823"/>
</g>
<!-- 9 -->
<g id="node10" class="node">
<title>9</title>
<path fill="none" stroke="#d88556" stroke-width="2" d="M512.305,-684C512.305,-684 470.321,-684 470.321,-684 464.321,-684 458.321,-678 458.321,-672 458.321,-672 458.321,-660 458.321,-660 458.321,-654 464.321,-648 470.321,-648 470.321,-648 512.305,-648 512.305,-648 518.305,-648 524.305,-654 524.305,-660 524.305,-660 524.305,-672 524.305,-672 524.305,-678 518.305,-684 512.305,-684"/>
<text text-anchor="middle" x="491.313" y="-663" font-family="sans" font-size="10.00" fill="#000000">Demultiplex</text>
</g>
<!-- 9&#45;&gt;8 -->
<g id="edge19" class="edge">
<title>9&#45;&gt;8</title>
<path fill="none" stroke="#c0c0c0" stroke-width="2" d="M491.313,-647.8314C491.313,-640.131 491.313,-630.9743 491.313,-622.4166"/>
<polygon fill="#c0c0c0" stroke="#c0c0c0" stroke-width="2" points="494.8131,-622.4132 491.313,-612.4133 487.8131,-622.4133 494.8131,-622.4132"/>
</g>
<!-- 10 -->
<g id="node11" class="node">
<title>10</title>
<path fill="none" stroke="#56d86b" stroke-width="2" d="M511.6861,-756C511.6861,-756 470.9399,-756 470.9399,-756 464.9399,-756 458.9399,-750 458.9399,-744 458.9399,-744 458.9399,-732 458.9399,-732 458.9399,-726 464.9399,-720 470.9399,-720 470.9399,-720 511.6861,-720 511.6861,-720 517.6861,-720 523.6861,-726 523.6861,-732 523.6861,-732 523.6861,-744 523.6861,-744 523.6861,-750 517.6861,-756 511.6861,-756"/>
<text text-anchor="middle" x="491.313" y="-735" font-family="sans" font-size="10.00" fill="#000000">Import_data</text>
</g>
<!-- 10&#45;&gt;9 -->
<g id="edge20" class="edge">
<title>10&#45;&gt;9</title>
<path fill="none" stroke="#c0c0c0" stroke-width="2" d="M491.313,-719.8314C491.313,-712.131 491.313,-702.9743 491.313,-694.4166"/>
<polygon fill="#c0c0c0" stroke="#c0c0c0" stroke-width="2" points="494.8131,-694.4132 491.313,-684.4133 487.8131,-694.4133 494.8131,-694.4132"/>
</g>
<!-- 11&#45;&gt;1 -->
<g id="edge12" class="edge">
<title>11&#45;&gt;1</title>
<path fill="none" stroke="#c0c0c0" stroke-width="2" d="M45.6648,-359.8751C33.3252,-316.2922 9.3199,-204.7472 65.313,-144 87.7264,-119.6836 303.8845,-100.6079 399.8286,-93.2672"/>
<polygon fill="#c0c0c0" stroke="#c0c0c0" stroke-width="2" points="400.1147,-96.7557 409.8224,-92.5119 399.587,-89.7756 400.1147,-96.7557"/>
</g>
<!-- 12&#45;&gt;1 -->
<g id="edge2" class="edge">
<title>12&#45;&gt;1</title>
<path fill="none" stroke="#c0c0c0" stroke-width="2" d="M118.626,-287.9808C92.3043,-255.5143 45.5674,-186.6162 82.313,-144 102.82,-120.2167 307.0334,-101.0387 399.8371,-93.4783"/>
<polygon fill="#c0c0c0" stroke="#c0c0c0" stroke-width="2" points="400.3665,-96.9471 410.0536,-92.6564 399.8051,-89.9697 400.3665,-96.9471"/>
</g>
<!-- 13 -->
<g id="node14" class="node">
<title>13</title>
<path fill="none" stroke="#56b1d8" stroke-width="2" d="M291.6216,-180C291.6216,-180 231.0044,-180 231.0044,-180 225.0044,-180 219.0044,-174 219.0044,-168 219.0044,-168 219.0044,-156 219.0044,-156 219.0044,-150 225.0044,-144 231.0044,-144 231.0044,-144 291.6216,-144 291.6216,-144 297.6216,-144 303.6216,-150 303.6216,-156 303.6216,-156 303.6216,-168 303.6216,-168 303.6216,-174 297.6216,-180 291.6216,-180"/>
<text text-anchor="middle" x="261.313" y="-159" font-family="sans" font-size="10.00" fill="#000000">export_classified</text>
</g>
<!-- 13&#45;&gt;1 -->
<g id="edge9" class="edge">
<title>13&#45;&gt;1</title>
<path fill="none" stroke="#c0c0c0" stroke-width="2" d="M303.5263,-145.4817C332.5048,-134.1423 370.914,-119.1127 400.446,-107.5567"/>
<polygon fill="#c0c0c0" stroke="#c0c0c0" stroke-width="2" points="402.0574,-110.6846 410.0944,-103.7812 399.5066,-104.1659 402.0574,-110.6846"/>
</g>
<!-- 14&#45;&gt;13 -->
<g id="edge23" class="edge">
<title>14&#45;&gt;13</title>
<path fill="none" stroke="#c0c0c0" stroke-width="2" d="M235.145,-215.8314C239.0116,-207.8771 243.6336,-198.369 247.9098,-189.5723"/>
<polygon fill="#c0c0c0" stroke="#c0c0c0" stroke-width="2" points="251.1379,-190.9371 252.3621,-180.4133 244.8423,-187.8768 251.1379,-190.9371"/>
</g>
<!-- 19 -->
<g id="node20" class="node">
<title>19</title>
<path fill="none" stroke="#56d8c9" stroke-width="2" d="M189.1144,-180C189.1144,-180 103.5116,-180 103.5116,-180 97.5116,-180 91.5116,-174 91.5116,-168 91.5116,-168 91.5116,-156 91.5116,-156 91.5116,-150 97.5116,-144 103.5116,-144 103.5116,-144 189.1144,-144 189.1144,-144 195.1144,-144 201.1144,-150 201.1144,-156 201.1144,-156 201.1144,-168 201.1144,-168 201.1144,-174 195.1144,-180 189.1144,-180"/>
<text text-anchor="middle" x="146.313" y="-159" font-family="sans" font-size="10.00" fill="#000000">visualize_classification</text>
</g>
<!-- 14&#45;&gt;19 -->
<g id="edge29" class="edge">
<title>14&#45;&gt;19</title>
<path fill="none" stroke="#c0c0c0" stroke-width="2" d="M206.1256,-215.8314C196.4616,-207.1337 184.7334,-196.5783 174.2314,-187.1265"/>
<polygon fill="#c0c0c0" stroke="#c0c0c0" stroke-width="2" points="176.2683,-184.251 166.4939,-180.1628 171.5855,-189.454 176.2683,-184.251"/>
</g>
<!-- 14&#45;&gt;21 -->
<g id="edge33" class="edge">
<title>14&#45;&gt;21</title>
<path fill="none" stroke="#c0c0c0" stroke-width="2" d="M262.3979,-215.8314C281.1119,-206.4089 304.1562,-194.8062 324.053,-184.7883"/>
<polygon fill="#c0c0c0" stroke="#c0c0c0" stroke-width="2" points="325.8819,-187.7861 333.2396,-180.1628 322.7338,-181.5339 325.8819,-187.7861"/>
</g>
<!-- 15&#45;&gt;1 -->
<g id="edge10" class="edge">
<title>15&#45;&gt;1</title>
<path fill="none" stroke="#c0c0c0" stroke-width="2" d="M707.9872,-503.9184C742.3381,-479.7745 795.313,-433.5374 795.313,-378 795.313,-378 795.313,-378 795.313,-234 795.313,-193.1184 805.8826,-172.2302 776.313,-144 736.1597,-105.6655 572.1724,-94.4785 491.1119,-91.2655"/>
<polygon fill="#c0c0c0" stroke="#c0c0c0" stroke-width="2" points="490.8369,-87.753 480.7138,-90.8792 490.577,-94.7482 490.8369,-87.753"/>
</g>
<!-- 16&#45;&gt;1 -->
<g id="edge6" class="edge">
<title>16&#45;&gt;1</title>
<path fill="none" stroke="#c0c0c0" stroke-width="2" d="M406.8777,-359.9843C413.8093,-311.2939 432.9566,-176.7961 441.3187,-118.0573"/>
<polygon fill="#c0c0c0" stroke="#c0c0c0" stroke-width="2" points="444.8048,-118.4024 442.7492,-108.0089 437.8747,-117.4157 444.8048,-118.4024"/>
</g>
<!-- 17&#45;&gt;1 -->
<g id="edge8" class="edge">
<title>17&#45;&gt;1</title>
<path fill="none" stroke="#c0c0c0" stroke-width="2" d="M481.272,-287.9113C477.7387,-257.8607 469.8388,-195.8254 459.313,-144 457.6052,-135.5914 455.4027,-126.5355 453.2525,-118.2873"/>
<polygon fill="#c0c0c0" stroke="#c0c0c0" stroke-width="2" points="456.5672,-117.1344 450.598,-108.3811 449.8057,-118.9463 456.5672,-117.1344"/>
</g>
<!-- 18&#45;&gt;1 -->
<g id="edge4" class="edge">
<title>18&#45;&gt;1</title>
<path fill="none" stroke="#c0c0c0" stroke-width="2" d="M538.3386,-431.8023C539.6389,-401.5947 540.6091,-339.339 530.313,-288 516.903,-221.1342 506.5959,-205.5904 477.313,-144 472.9833,-134.8933 467.6028,-125.315 462.4969,-116.7957"/>
<polygon fill="#c0c0c0" stroke="#c0c0c0" stroke-width="2" points="465.3385,-114.7342 457.1269,-108.0394 459.3712,-118.3938 465.3385,-114.7342"/>
</g>
<!-- 19&#45;&gt;1 -->
<g id="edge3" class="edge">
<title>19&#45;&gt;1</title>
<path fill="none" stroke="#c0c0c0" stroke-width="2" d="M201.0789,-146.4094C204.199,-145.5797 207.2935,-144.7711 210.313,-144 275.8746,-127.2582 352.3323,-110.1298 399.7888,-99.7775"/>
<polygon fill="#c0c0c0" stroke="#c0c0c0" stroke-width="2" points="400.7233,-103.1562 409.7511,-97.611 399.2357,-96.3161 400.7233,-103.1562"/>
</g>
<!-- 20&#45;&gt;1 -->
<g id="edge11" class="edge">
<title>20&#45;&gt;1</title>
<path fill="none" stroke="#c0c0c0" stroke-width="2" d="M571.6672,-143.8314C546.6958,-133.1927 515.2004,-119.7745 489.9014,-108.9962"/>
<polygon fill="#c0c0c0" stroke="#c0c0c0" stroke-width="2" points="491.1069,-105.7055 480.5352,-105.0059 488.3633,-112.1454 491.1069,-105.7055"/>
</g>
<!-- 21&#45;&gt;1 -->
<g id="edge7" class="edge">
<title>21&#45;&gt;1</title>
<path fill="none" stroke="#c0c0c0" stroke-width="2" d="M388.491,-143.8314C397.6718,-135.1337 408.8136,-124.5783 418.7906,-115.1265"/>
<polygon fill="#c0c0c0" stroke="#c0c0c0" stroke-width="2" points="421.2887,-117.5811 426.1411,-108.1628 416.4745,-112.4995 421.2887,-117.5811"/>
</g>
</g>
</svg>
